<svg xmlns="http://www.w3.org/2000/svg" width="2240" height="268" viewBox="0 0 2240 268">
<path d="M2140.1 264.5H2072.9C2070.1 264.5 2067.8 262 2067.8 259.1V72C2067.8 69.2 2070.1 66.6 2072.9 66.6H2140.1C2194.8 66.6 2239.6 111 2239.6 165.3C2239.6 220.1 2194.8 264.5 2140.1 264.5ZM2136.7 100.8H2104.4V230H2136.7C2173.5 230 2200.5 202.3 2200.5 165.2C2200.4 128.5 2173.5 100.8 2136.7 100.8ZM2038.1 264.5H2013.4C2009.2 264.5 2007.2 262.8 2005.2 258.8L1991.3 228.3H1906.6L1892.7 258.8C1891.6 261.6 1889 264.5 1884.5 264.5H1859.8C1855.6 264.5 1853.3 260.8 1855 257.2L1943.1 66.9C1944 65.2 1945.4 63.8 1947.9 63.8H1950.7C1953.5 63.8 1954.7 65.2 1955.5 66.9L2042.8 257.2C2044.6 260.9 2042.3 264.5 2038.1 264.5ZM1949.1 134.8H1948.2L1920.4 197H1977.4L1949.1 134.8ZM1826.5 264.5H1711.2C1708.1 264.5 1705.8 262 1705.8 259.1V72C1705.8 69.2 1708.1 66.6 1711.2 66.6H1826.5C1829.6 66.6 1831.9 69.1 1831.9 72V95.2C1831.9 98 1829.6 100.6 1826.5 100.6H1742.6V147H1812.6C1815.4 147 1818 149.5 1818 152.4V175.9C1818 179 1815.4 181.3 1812.6 181.3H1742.6V230.8H1826.5C1829.6 230.8 1831.9 233.3 1831.9 236.2V259.4C1831.8 262 1829.6 264.5 1826.5 264.5ZM1659.1 264.5H1633C1629.9 264.5 1627.6 262 1627.6 259.1V181.1H1535.2V259.1C1535.2 261.9 1532.9 264.5 1529.8 264.5H1503.4C1500.6 264.5 1498 262 1498 259.1V72C1498 69.2 1500.6 66.6 1503.4 66.6H1529.8C1532.9 66.6 1535.2 69.1 1535.2 72V146.9H1627.6V72C1627.6 69.2 1629.9 66.6 1633 66.6H1659.1C1661.9 66.6 1664.5 69.1 1664.5 72V259.2C1664.5 262 1662 264.5 1659.1 264.5ZM1412 263.4C1411.4 265.7 1409.2 267.4 1406.9 267.4H1402.4C1399.8 267.4 1398.2 266 1397.6 264.3L1346.9 136.2H1345.5L1295.3 264.3C1294.5 266 1293.3 267.4 1290.5 267.4H1286C1283.7 267.4 1281.5 265.7 1280.9 263.4L1227.3 73.4C1226.2 69.4 1228.4 66.6 1232.4 66.6H1258.5C1260.8 66.6 1263 68.6 1263.6 70.6L1293.1 183.4H1294.2L1339.3 66.9C1339.9 65.2 1341.3 63.8 1344.1 63.8H1349.2C1352 63.8 1353.4 65.2 1354 66.9L1399.3 183.4H1400.4L1429.3 70.6C1429.9 68.6 1432.1 66.6 1434.4 66.6H1460.5C1464.5 66.6 1466.7 69.4 1465.6 73.4L1412 263.4ZM1112.7 267.4C1056 267.4 1011 222.4 1011 165.9C1011 109.4 1056.1 63.8 1112.7 63.8C1169.4 63.8 1214.7 109.3 1214.7 165.9C1214.7 222.5 1169.4 267.4 1112.7 267.4ZM1112.7 100.5C1077 100.5 1047.8 130.2 1047.8 165.8C1047.8 201.4 1077 230.6 1112.7 230.6C1148.4 230.6 1177.9 201.5 1177.9 165.8C1177.9 130.2 1148.4 100.5 1112.7 100.5ZM944.1 184.5L982.9 256.3C984.9 260 982.9 264.5 978.1 264.5H948.3C945.7 264.5 944.3 263.1 943.8 262L906.1 187.1H874.6V259.2C874.6 262 872 264.6 869.2 264.6H843.1C840 264.6 837.7 262.1 837.7 259.2V72C837.7 69.2 840 66.6 843.1 66.6H924.1C958.1 66.6 985.9 93.7 985.9 127.4C986 153.4 968.8 174.6 944.1 184.5ZM921.1 100.5H874.9V156.8H921.1C936.1 156.8 949.2 143.8 949.2 128C949.2 113 936.2 100.5 921.1 100.5ZM755.3 184.5L794.1 256.3C796.1 260 794.1 264.5 789.3 264.5H759.5C757 264.5 755.5 263.1 755 262L717.3 187.1H685.8V259.2C685.8 262 683.3 264.6 680.4 264.6H654.3C651.2 264.6 648.9 262.1 648.9 259.2V72C648.9 69.2 651.2 66.6 654.3 66.6H735.3C769.3 66.6 797.1 93.7 797.1 127.4C797.3 153.4 780 174.6 755.3 184.5ZM732.4 100.5H686.2V156.8H732.4C747.4 156.8 760.5 143.8 760.5 128C760.5 113 747.4 100.5 732.4 100.5ZM618.5 264.5H593.8C589.6 264.5 587.6 262.8 585.6 258.8L571.7 228.3H487L473.1 258.8C472 261.6 469.4 264.5 464.9 264.5H440.3C436.1 264.5 433.8 260.8 435.5 257.2L523.6 66.9C524.4 65.2 525.9 63.8 528.4 63.8H531.2C534 63.8 535.2 65.2 536 66.9L623.3 257.2C625 260.9 622.7 264.5 618.5 264.5ZM529.5 134.8H528.7L500.8 197H557.8L529.5 134.8ZM392.5 189.1L320.8 193.2C317.9 193.4 316.5 191.2 317.6 188.4L328.5 176.3L330.6 177.1C334 178.4 339.7 180.1 345 180.7C357.2 182.1 361.8 177.3 363.5 173.1C365.2 168.9 365.2 162.2 355.5 154.8C351.3 151.6 346 148.8 342.7 147.4L340.4 146.5L341 130.8C342.1 128 344.6 127.4 346.6 129.6L395.4 182.3C398.4 185.7 397.2 188.8 392.5 189.1ZM354.7 169.6C352.6 174.8 337.3 170.5 332.4 168.5L275.6 145.6C277.2 141 278.5 136.3 279.7 131.5L337.9 155C342.8 156.9 356.8 164.4 354.7 169.6ZM198.7 198.4C160.5 198.4 129.5 149.1 129.5 98.6C129.5 48.1 160.5 15.5 198.7 15.5C236.9 15.5 267.9 48.1 267.9 98.6C267.9 149.1 236.9 198.4 198.7 198.4ZM60.8 59L27.6 45.6C16.6 41.2 22.1 27.6 33.1 32L66.3 45.4L118.4 66.4C117.1 71.1 116.2 76 115.5 81L60.8 59ZM36.3 24C33.8 23 31.3 22.6 29.1 22.6L25.6 3.90005C25 0.900049 26.7 -0.199987 29.3 1.30001L72.4 26.5C75 28 77.8 31.7 78.6 34.5L80.5 41.7L69.6 37.3L36.3 24ZM57.7 67.1L68.9 71.6L61.7 76.2C59.2 77.8 54.7 78.6 51.7 77.9L3.00002 66.6C0.100024 65.9 -0.399975 63.9 2.00002 62.1L18.3 49.9C19.9 51.5 21.9 52.8 24.3 53.8L57.7 67.1ZM66.6 232.8C67.9 230.1 71.2 227 74 225.8L144.8 198.2C147.4 197.2 151.5 196.4 154.5 196.2C156 197.5 157.4 198.7 158.9 199.8C159.3 200.1 159.6 200.4 160 200.6C160.7 201.1 161.3 201.6 162 202C162.4 202.3 162.8 202.5 163.2 202.8C164.3 203.5 165.4 204.2 166.5 204.8C167 205.1 167.5 205.4 168 205.7C168.6 206 169.2 206.4 169.8 206.7C170.6 207.1 171.4 207.5 172.3 207.9C173 208.2 173.6 208.5 174.3 208.8C175 209.1 175.7 209.4 176.4 209.7C176.9 209.9 177.4 210.1 177.9 210.3C179 210.7 180.1 211.1 181.2 211.4C181.5 211.5 181.8 211.6 182.2 211.7C183.1 212 184.1 212.2 185 212.4C185.4 212.5 185.8 212.6 186.2 212.7C187.4 212.9 188.6 213.2 189.9 213.4C190 213.4 190.2 213.4 190.3 213.4C191.4 213.6 192.6 213.7 193.8 213.8C194.1 213.8 194.5 213.8 194.8 213.9C196.1 214 197.4 214 198.7 214C200 214 201.3 213.9 202.6 213.9C202.9 213.9 203.3 213.9 203.6 213.8C204.8 213.7 205.9 213.6 207.1 213.4C207.2 213.4 207.4 213.4 207.5 213.4C208.7 213.2 210 213 211.2 212.7C211.6 212.6 212 212.5 212.4 212.4C213.4 212.2 214.3 211.9 215.2 211.7C215.5 211.6 215.8 211.5 216.2 211.4C217.3 211.1 218.4 210.7 219.5 210.3C220 210.1 220.5 209.9 221 209.7C221.7 209.4 222.4 209.1 223.1 208.8C223.8 208.5 224.4 208.2 225.1 207.9C225.9 207.5 226.7 207.1 227.6 206.7C228.2 206.4 228.8 206.1 229.4 205.7C229.9 205.4 230.4 205.1 230.9 204.8C232 204.2 233.1 203.5 234.2 202.8C234.6 202.5 235 202.3 235.4 202C236.1 201.5 236.7 201.1 237.4 200.6C237.8 200.3 238.1 200.1 238.5 199.8C240 198.7 241.5 197.5 242.9 196.2C245.9 196.4 250.1 197.2 252.6 198.2L323.4 225.8C326.2 226.9 329.5 230 330.8 232.8L343.2 259.2C344.5 261.9 343.1 264.2 340.1 264.2H272.1C269.1 264.2 264.1 264.2 261.1 264.2H57.4C54.4 264.2 53 262 54.3 259.2L66.6 232.8Z" fill="white"/>
<script xmlns="" id="bw-fido2-page-script"/></svg>